<svg width="50" height="47" viewBox="0 0 50 47" fill="none" xmlns="http://www.w3.org/2000/svg">
<path fill-rule="evenodd" clip-rule="evenodd" d="M25.02 5.03573C23.5519 5.01038 22.0931 5.26204 20.7269 5.7763C19.3607 6.29055 18.1139 7.05731 17.0581 8.03268C16.0022 9.00806 15.1579 10.1729 14.5735 11.4606C13.9891 12.7482 13.6761 14.1334 13.6523 15.5369V30.2143C13.6523 31.1047 13.2823 31.9586 12.6237 32.5882C11.9651 33.2177 11.0719 33.5714 10.1405 33.5714H5.75073C4.35365 33.5714 3.01379 33.0409 2.02591 32.0965C1.03802 31.1521 0.483032 29.8713 0.483032 28.5357L0.483032 21.8214C0.483032 20.4859 1.03802 19.205 2.02591 18.2607C3.01379 17.3163 4.35365 16.7857 5.75073 16.7857H8.38458V15.4764C8.41663 13.4131 8.87354 11.376 9.72923 9.48155C10.5849 7.58705 11.8226 5.87226 13.3716 4.43509C14.9207 2.99793 16.7507 1.86655 18.7572 1.10557C20.7636 0.344592 22.9073 -0.0310787 25.0656 1.36768e-05C27.224 -0.0310787 29.3676 0.344592 31.3741 1.10557C33.3806 1.86655 35.2106 2.99793 36.7596 4.43509C38.3087 5.87226 39.5464 7.58705 40.4021 9.48155C41.2577 11.376 41.7147 13.4131 41.7467 15.4764V16.7857H44.3805C45.7776 16.7857 47.1175 17.3163 48.1054 18.2607C49.0933 19.205 49.6482 20.4859 49.6482 21.8214V28.5357C49.6482 29.8713 49.0933 31.1521 48.1054 32.0965C47.1175 33.0409 45.7776 33.5714 44.3805 33.5714H41.7467V35.25C41.7471 37.5186 40.8738 39.708 39.2933 41.4003C37.7129 43.0926 35.5359 44.1694 33.1779 44.4251C32.72 45.2067 32.0522 45.8573 31.2436 46.31C30.4349 46.7626 29.5145 47.0008 28.5774 47H23.3097C21.9127 47 20.5728 46.4695 19.5849 45.5251C18.597 44.5807 18.042 43.2999 18.042 41.9643C18.042 40.6287 18.597 39.3479 19.5849 38.4035C20.5728 37.4591 21.9127 36.9286 23.3097 36.9286H28.5774C30.4808 36.9286 32.1489 37.8921 33.0725 39.339C34.0405 39.1263 34.9044 38.6062 35.5231 37.8635C36.1418 37.1208 36.4788 36.1995 36.479 35.25V15.5335C36.4549 14.1228 36.1385 12.7307 35.5482 11.4376C34.9579 10.1446 34.1053 8.97615 33.0398 7.99998C31.9742 7.0238 30.7168 6.25922 29.3403 5.75042C27.9637 5.24163 26.4953 4.99872 25.02 5.03573Z" fill="#00417C"/>
</svg>
